<!-- Generated by IcoMoon.io -->
<svg version="1.1" xmlns="http://www.w3.org/2000/svg" width="768" height="768" viewBox="0 0 768 768">
<title></title>
<g id="icomoon-ignore">
</g>
<path d="M20.194 64.82l51.060 587.234v50.665c0.046 35.33 28.669 63.955 63.998 64h128c35.33-0.046 63.955-28.669 64-64v-50.665l51.056-587.234 12.565-50.191c0.956-3.826 0.1-7.88-2.329-10.985-2.425-3.106-6.145-4.925-10.091-4.925h-358.399c-3.945 0-7.66 1.82-10.095 4.925-2.425 3.106-3.28 7.16-2.325 10.985l12.56 50.191zM314.967 497.92h-231.424l-6.67-76.8h244.76l-6.665 76.8zM312.742 523.52l-10.024 115.2h-206.925l-10.025-115.2h226.975zM154.452 664.32h89.6v12.8c0 7.070-5.729 12.8-12.8 12.8h-64c-7.069 0-12.8-5.731-12.8-12.8v-12.8zM301.652 702.72c0 21.205-17.195 38.4-38.4 38.4h-128c-21.205 0-38.4-17.195-38.4-38.4v-38.4h32v12.8c0 21.205 17.195 38.4 38.4 38.4h64c21.205 0 38.4-17.195 38.4-38.4v-12.8h32v38.4zM323.858 395.52h-249.209l-27.83-320h304.874l-27.835 320zM362.053 24.321l-6.4 25.6h-312.805l-6.4-25.6h325.605z"></path>
<path d="M493.654 766.719h179.201c21.205 0 38.4-17.195 38.4-38.4v-486.399c-0.031-25.42-15.105-48.405-38.4-58.575v-43.825c0-7.070-5.731-12.8-12.801-12.8h-38.4v-51.2h128.001c5.174 0 9.844-3.12 11.824-7.9 1.981-4.78 0.88-10.291-2.774-13.951l-25.601-25.6c-1.955-1.955-4.495-3.225-7.229-3.625l-179.2-25.6c-0.605-0.080-1.214-0.124-1.821-0.124h-51.2c-7.070 0-12.8 5.729-12.8 12.8v51.2c0 7.070 5.731 12.8 12.8 12.8h51.2v51.2h-38.4c-7.070 0-12.8 5.731-12.8 12.8v43.825c-23.295 10.171-38.371 33.155-38.4 58.575v486.399c0 21.205 17.195 38.4 38.4 38.4zM685.655 305.92h-204.801v-25.6h204.801v25.6zM685.655 587.52h-204.801v-256h204.801v256zM672.854 741.119h-179.2c-7.070 0-12.8-5.731-12.8-12.8v-115.2h204.801v115.2c0 7.070-5.731 12.8-12.8 12.8zM506.455 24.321h37.496l174.075 24.869 0.731 0.731h-212.301v-25.6zM570.455 75.52h25.6v51.2h-25.6v-51.2zM519.254 152.32h128v25.6h-128v-25.6zM519.254 203.52h128c21.206 0 38.401 17.195 38.401 38.4v12.8h-204.801v-12.8c0-21.205 17.195-38.4 38.4-38.4z"></path>
<path d="M122.455 472.32h153.6c7.069 0 12.8-5.731 12.8-12.8s-5.731-12.8-12.8-12.8h-153.6c-7.069 0-12.8 5.731-12.8 12.8s5.731 12.8 12.8 12.8z"></path>
<path d="M583.255 689.92h-51.2v-38.4c0-7.069-5.731-12.8-12.8-12.8s-12.8 5.731-12.8 12.8v51.2c0 7.070 5.731 12.8 12.8 12.8h64c7.070 0 12.8-5.731 12.8-12.8s-5.731-12.8-12.8-12.8z"></path>
<path d="M647.255 689.92h-12.8c-7.070 0-12.8 5.731-12.8 12.8s5.731 12.8 12.8 12.8h12.8c7.070 0 12.8-5.731 12.8-12.8s-5.731-12.8-12.8-12.8z"></path>
<path d="M259.208 612.469c6.71 2.225 13.945-1.4 16.175-8.104l12.8-38.4c2.242-6.716-1.39-13.97-8.111-16.21-6.719-2.231-13.969 1.4-16.204 8.12l-12.8 38.4c-1.070 3.226-0.815 6.745 0.71 9.78 1.525 3.040 4.201 5.345 7.43 6.415z"></path>
</svg>
