<!-- Generated by IcoMoon.io -->
<svg version="1.1" xmlns="http://www.w3.org/2000/svg" width="768" height="768" viewBox="0 0 768 768">
<title></title>
<g id="icomoon-ignore">
</g>
<path d="M344.237 88.235c36.007-36.007 84.841-56.236 135.763-56.236h96c17.674 0 32 14.327 32 32v128c0 17.673-14.327 32-32 32h-96v64h96c9.853 0 19.159 4.54 25.222 12.307s8.211 17.894 5.821 27.453l-32 128c-3.559 14.246-16.358 24.24-31.043 24.24h-64v224c0 17.674-14.327 32-32 32h-128c-17.673 0-32-14.327-32-32v-224h-64c-17.673 0-32-14.327-32-32v-128c0-17.673 14.327-32 32-32h64v-64c0-50.921 20.228-99.757 56.236-135.764zM480 96c-33.949 0-66.505 13.486-90.509 37.49-24.007 24.005-37.491 56.562-37.491 90.51v96c0 17.674-14.326 32-32 32h-64v64h64c17.674 0 32 14.326 32 32v224h64v-224c0-17.674 14.326-32 32-32h71.015l16-64h-87.014c-17.674 0-32-14.326-32-32v-96c0-16.974 6.742-33.253 18.745-45.255s28.282-18.746 45.254-18.746h64v-64h-64z"></path>
</svg>
