<!-- Generated by IcoMoon.io -->
<svg version="1.1" xmlns="http://www.w3.org/2000/svg" width="975" height="1024" viewBox="0 0 975 1024">
<title></title>
<g id="icomoon-ignore">
</g>
<path fill="#875afd" d="M711.924 633.905c-9.752-4.876-73.143-34.133-82.895-39.010s-19.505-4.876-29.257 4.876c-9.752 9.752-29.257 39.010-39.010 48.762-4.876 9.752-14.629 9.752-24.381 4.876-34.133-14.629-68.267-34.133-97.524-58.514-24.381-24.381-48.762-53.638-68.267-82.895-4.876-9.752 0-19.505 4.876-24.382s9.752-14.629 19.505-19.505c4.876-4.876 9.752-14.629 9.752-19.505 4.876-4.877 4.876-14.629 0-19.505s-29.257-63.39-39.010-87.771c-4.876-34.133-14.629-34.133-24.381-34.133-4.876 0-14.629 0-24.381 0s-24.381 9.752-29.257 14.629c-29.257 29.257-43.886 63.39-43.886 102.4 4.876 43.886 19.505 87.772 48.762 126.782 53.638 78.019 121.905 141.41 204.8 180.419 24.381 9.752 43.886 19.505 68.267 24.381 24.381 9.752 48.762 9.752 78.019 4.876 34.133-4.876 63.39-29.257 82.895-58.514 9.752-19.505 9.752-39.010 4.876-58.514 0 0-9.752-4.876-19.505-9.752zM833.829 190.17c-190.171-190.172-497.371-190.172-687.543 0-156.038 156.038-185.295 394.972-78.019 585.144l-68.267 248.686 258.438-68.267c73.143 39.010 151.162 58.514 229.181 58.514 268.19 0 482.743-214.552 482.743-482.743 4.876-126.782-48.762-248.687-136.533-341.334zM702.171 872.838c-63.39 39.010-136.533 63.39-214.552 63.39-73.143 0-141.41-19.505-204.8-53.638l-14.629-9.752-151.162 39.010 39.010-146.286-9.752-14.629c-117.029-195.048-58.514-438.858 131.657-560.763s433.981-58.514 551.010 126.781c117.029 190.172 63.39 438.858-126.781 555.887z"></path>
</svg>
