<!-- Generated by IcoMoon.io -->
<svg version="1.1" xmlns="http://www.w3.org/2000/svg" width="768" height="768" viewBox="0 0 768 768">
<title></title>
<g id="icomoon-ignore">
</g>
<path d="M384 431.893c14.559 0.004 27.685-8.766 33.263-22.219 5.572-13.449 2.498-28.931-7.8-39.229-14.25-13.584-36.657-13.584-50.907 0-10.283 10.289-13.368 25.772-7.796 39.22 5.564 13.453 18.685 22.224 33.239 22.228zM375.515 387.408c4.688-4.683 12.281-4.683 16.969 0 4.683 4.688 4.683 12.286 0 16.969-4.743 4.542-12.225 4.542-16.969 0-4.683-4.683-4.683-12.281 0-16.969z"></path>
<path d="M528 263.893c3.182 0 6.234-1.266 8.485-3.515l108-108.001c4.547-4.706 4.481-12.192-0.145-16.823-4.631-4.626-12.113-4.693-16.824-0.145l-108 108c-3.426 3.436-4.458 8.596-2.602 13.078s6.234 7.406 11.086 7.406z"></path>
<path d="M468 323.893c3.182 0 6.234-1.266 8.485-3.517l24-24c4.547-4.706 4.481-12.192-0.146-16.823-4.631-4.626-12.112-4.693-16.823-0.145l-24 24c-3.426 3.436-4.458 8.596-2.602 13.078s6.234 7.406 11.086 7.406z"></path>
<path d="M156 599.893c-26.507 0-48 21.491-48 48 0 26.513 21.493 48 48 48s48-21.487 48-48c0-26.509-21.493-48-48-48v0zM156 671.893c-13.257 0-24-10.739-24-24 0-13.252 10.743-24 24-24s24 10.748 24 24c0 13.261-10.743 24-24 24z"></path>
<path d="M612.446 695.893c26.507 0 48-21.487 48-48 0-26.509-21.493-48-48-48-26.513 0-48 21.491-48 48 0 26.513 21.487 48 48 48v0zM612.446 623.893c13.252 0 24 10.748 24 24 0 13.261-10.748 24-24 24s-24-10.739-24-24c0-13.252 10.748-24 24-24z"></path>
<path d="M732 443.893c-26.507 0-48-21.487-48-48 0-6.628-5.372-12-12-12s-12 5.372-12 12c0 26.513-21.493 48-48 48-6.628 0-12 5.372-12 12s5.372 12 12 12c26.507 0 48 21.491 48 48 0 6.628 5.372 12 12 12s12-5.372 12-12c0-26.509 21.493-48 48-48 6.628 0 12-5.372 12-12s-5.372-12-12-12zM672 476.18c-5.343-8.049-12.239-14.945-20.278-20.287 8.039-5.339 14.935-12.234 20.278-20.278 5.343 8.044 12.239 14.939 20.278 20.278-8.039 5.343-14.935 12.239-20.278 20.287z"></path>
<path d="M36 323.893c26.508 0 48 21.491 48 48 0 6.628 5.371 12 12 12s12-5.372 12-12c0-26.509 21.493-48 48-48 6.628 0 12-5.372 12-12s-5.372-12-12-12c-26.507 0-48-21.488-48-48 0-6.629-5.372-12-12-12s-12 5.371-12 12c0 26.512-21.492 48-48 48-6.629 0-12 5.371-12 12s5.371 12 12 12v0zM96 291.614c5.343 8.044 12.239 14.938 20.278 20.278-8.039 5.343-14.935 12.239-20.278 20.288-5.344-8.049-12.239-14.945-20.278-20.288 8.039-5.339 14.934-12.234 20.278-20.278v0z"></path>
<path d="M314.4 436.551l-122.4 122.377c-11.428-4.669-23.654-7.055-36-7.036-53.020 0-96 42.984-96 96 0 53.020 42.98 96 96 96s96-42.98 96-96c-0.010-5.738-0.553-11.465-1.603-17.109l133.833-130.8 133.824 130.8c-1.060 5.644-1.594 11.371-1.608 17.109 0 53.020 42.98 96 96 96 53.015 0 96-42.98 96-96 0-53.016-42.985-96-96-96-12.346-0.023-24.577 2.367-36 7.036l-122.255-122.231 227.18-261.305c52.875-66.093 1.139-145.363 0.613-146.155-1.95-2.925-5.085-4.847-8.578-5.255-3.507-0.403-7.008 0.731-9.605 3.117l-279.469 259.598-279.502-259.598c-2.592-2.386-6.093-3.52-9.6-3.117-3.492 0.408-6.629 2.329-8.578 5.255-0.535 0.792-52.247 80.062 0.933 146.531l226.814 260.784zM228.849 618.291c-3.070 3.004-4.299 7.42-3.229 11.578 7.715 29.817-4.393 61.233-30.113 78.163-25.725 16.936-59.363 15.634-83.705-3.234-24.338-18.867-33.985-51.127-23.996-80.254 9.994-29.133 37.397-48.685 68.194-48.652 11.507-0.010 22.847 2.761 33.047 8.091 4.645 2.404 10.307 1.523 14.006-2.171l127.064-127.055c7.106 6.694 15.314 12.117 24.267 16.018l12.671 12.394-138.206 135.122zM579.412 583.983c10.19-5.33 21.525-8.101 33.033-8.091 31.036-0.188 58.753 19.42 68.901 48.754 10.149 29.339 0.473 61.875-24.055 80.906-24.525 19.028-58.444 20.317-84.343 3.197-25.893-17.119-38.006-48.834-30.107-78.857 1.078-4.153-0.15-8.574-3.225-11.578l-145.528-142.27c16.529-2.535 31.875-10.073 43.982-21.6l127.327 127.322c3.685 3.717 9.356 4.618 14.016 2.218v0zM668.855 55.195c10.106 21.492 24.717 66.525-5.902 104.827l-239.438 275.386c-21.74 21.914-57.122 22.055-79.031 0.319-21.909-21.74-22.050-57.127-0.309-79.031l324.68-301.5zM99.745 55.093l266.954 247.936-39.183 36.379c-13.218 12.816-21.685 29.743-24 48l-197.485-227.016c-31.167-38.948-16.5-83.831-6.286-105.299z"></path>
</svg>
