<!-- Generated by IcoMoon.io -->
<svg version="1.1" xmlns="http://www.w3.org/2000/svg" width="768" height="768" viewBox="0 0 768 768">
<title></title>
<g id="icomoon-ignore">
</g>
<path d="M384 64c-67.895 0-133.010 26.971-181.019 74.981s-74.98 113.124-74.98 181.019c0 99.14 64.504 195.337 135.23 269.993 34.709 36.637 69.527 66.631 95.703 87.472 9.742 7.76 18.251 14.221 25.066 19.258 6.816-5.037 15.325-11.497 25.066-19.258 26.176-20.842 60.995-50.835 95.702-87.472 70.73-74.656 135.232-170.855 135.232-269.993 0-67.895-26.973-133.010-74.979-181.019-48.010-48.010-113.126-74.981-181.021-74.981zM384 736c-17.75 26.627-17.759 26.62-17.767 26.615l-0.092-0.061-0.946-0.64c-0.623-0.422-1.512-1.030-2.648-1.817-2.273-1.574-5.54-3.869-9.657-6.841-8.232-5.945-19.886-14.624-33.823-25.721-27.824-22.157-65.005-54.163-102.297-93.526-73.273-77.341-152.77-189.146-152.77-314.006 0-84.869 33.714-166.262 93.726-226.274s141.405-93.726 226.274-93.726c84.871 0 166.262 33.714 226.275 93.726 60.010 60.012 93.724 141.405 93.724 226.274 0 124.861-79.498 236.666-152.768 314.006-37.293 39.363-74.474 71.369-102.298 93.526-13.94 11.098-25.591 19.776-33.824 25.721-4.118 2.973-7.382 5.267-9.658 6.841-1.136 0.788-2.023 1.395-2.647 1.817l-0.733 0.496-0.214 0.144-0.068 0.045c-0.010 0.007-0.041 0.029-17.792-26.599zM384 736l17.75 26.627c-10.749 7.165-24.77 7.152-35.518-0.013l17.768-26.615z"></path>
</svg>
