<!-- Generated by IcoMoon.io -->
<svg version="1.1" xmlns="http://www.w3.org/2000/svg" width="768" height="768" viewBox="0 0 768 768">
<title></title>
<g id="icomoon-ignore">
</g>
<path d="M180.007 228.007c26.507 0 47.999-21.491 47.999-47.999s-21.491-47.999-47.999-47.999c-26.511 0-47.999 21.491-47.999 47.999s21.488 47.999 47.999 47.999zM180.007 156.009c13.252 0 24 10.748 24 24 0 13.255-10.748 24-24 24-13.256 0-23.999-10.745-23.999-24 0-13.252 10.743-24 23.999-24z"></path>
<path d="M168.007 348.005c0-26.507-21.493-47.999-48-47.999-26.512 0-47.999 21.491-47.999 47.999s21.488 47.999 47.999 47.999c26.507 0 48-21.491 48-47.999zM96.007 348.005c0-13.251 10.743-23.999 23.999-23.999 13.252 0 24 10.748 24 23.999 0 13.257-10.748 24-24 24-13.255 0-23.999-10.743-23.999-24z"></path>
<path d="M144.007 468.002c-26.511 0-47.999 21.493-47.999 48s21.488 47.999 47.999 47.999c26.507 0 48-21.491 48-47.999s-21.493-48-48-48zM144.007 540.001c-13.256 0-23.999-10.743-23.999-23.999 0-13.252 10.743-24 23.999-24 13.252 0 24 10.748 24 24 0 13.255-10.748 23.999-24 23.999z"></path>
<path d="M587.999 228.007c26.507 0 47.999-21.491 47.999-47.999s-21.491-47.999-47.999-47.999c-26.513 0-47.999 21.491-47.999 47.999s21.487 47.999 47.999 47.999zM587.999 156.009c13.252 0 24 10.748 24 24 0 13.255-10.748 24-24 24-13.255 0-23.999-10.745-23.999-24 0-13.252 10.743-24 23.999-24z"></path>
<path d="M600 348.005c0 26.507 21.487 47.999 47.999 47.999 26.507 0 47.999-21.491 47.999-47.999s-21.491-47.999-47.999-47.999c-26.513 0-47.999 21.491-47.999 47.999zM671.999 348.005c0 13.257-10.748 24-24 24-13.255 0-23.999-10.743-23.999-24 0-13.251 10.743-23.999 23.999-23.999 13.252 0 24 10.748 24 23.999z"></path>
<path d="M680.188 438.326c43.453-15.422 69.772-59.587 62.657-105.144-7.121-45.552-45.656-79.588-91.742-81.017 39.277-34.335 43.898-93.767 10.406-133.761-33.497-39.998-92.816-45.88-133.508-13.237v-69.157c0-6.623-5.372-12-12-12h-263.995c-6.628 0-12 5.377-12 12v69.337c-40.639-32.737-100.006-26.93-133.535 13.054-33.53 39.988-28.898 99.453 10.425 133.766-46.082 1.429-84.618 35.465-91.738 81.017-7.12 45.557 19.199 89.722 62.652 105.144-35.048 25.331-48.82 70.982-33.614 111.462 15.197 40.481 55.612 65.788 98.671 61.785 43.054-4.002 78.111-36.322 85.588-78.912 13.607 18.965 30.364 35.461 49.55 48.768v66.57h-107.998c-33.122 0.042-59.966 26.878-59.999 59.999v24c0 6.628 5.372 12 12 12h503.991c6.628 0 12-5.372 12-12v-24c-0.042-33.121-26.882-59.957-59.999-59.999h-107.998v-66.57c19.176-13.307 35.939-29.803 49.546-48.768 7.402 42.693 42.491 75.134 85.635 79.175 43.139 4.046 83.647-21.314 98.843-61.898 15.206-40.574 1.341-86.304-33.838-111.611zM719.998 348.004c0 39.764-32.241 71.999-71.999 71.999-39.768 0-71.999-32.236-71.999-71.999 0-39.758 32.231-71.999 71.999-71.999 39.745 0.042 71.957 32.25 71.999 71.999zM563.302 302.911c-3.844-12.093-8.602-23.869-14.231-35.23 11.297 5.020 23.461 7.8 35.817 8.17-8.766 7.646-16.083 16.814-21.586 27.061zM588 108.007c38.235-0.046 69.847 29.813 71.97 68.001 2.123 38.184-25.968 71.366-63.983 75.566-38.010 4.195-72.674-22.055-78.932-59.784 6.159-0.487 10.907-5.606 10.945-11.784v-39.594c13.214-20.273 35.798-32.465 59.999-32.404zM504.001 168.007h-59.999v-119.998h59.999v119.998zM420.003 48.009v119.998h-71.999v-119.998h71.999zM204.695 302.911c-5.507-10.251-12.825-19.415-21.596-27.061 12.356-0.374 24.52-3.15 35.817-8.17-5.625 11.366-10.378 23.147-14.221 35.23zM264.005 48.009h59.999v119.998h-59.999v-119.998zM108.007 180.007c-0.052-31.794 20.784-59.849 51.238-68.99 30.459-9.135 63.299 2.818 80.76 29.396v39.594c0.028 6.179 4.786 11.297 10.94 11.784-6.351 36.74-39.703 62.545-76.859 59.479-37.153-3.061-65.825-33.98-66.079-71.263zM48.009 348.004c0-39.758 32.23-71.999 71.999-71.999 39.758 0 71.999 32.241 71.999 71.999 0 39.764-32.241 71.999-71.999 71.999-39.749-0.038-71.966-32.249-71.999-71.999zM144.007 588c-39.768 0-71.998-32.235-71.998-71.999 0-39.758 32.23-71.998 71.998-71.998 39.759 0 71.999 32.239 71.999 71.998-0.042 39.75-32.254 71.962-71.999 71.999zM176.195 425.684c6.323-4.579 12.079-9.899 17.129-15.844 0.857 8.906 2.137 17.671 3.847 26.296-6.529-4.335-13.579-7.846-20.976-10.453zM461.566 564.882c-3.469 2.202-5.569 6.028-5.564 10.134v84.983c0 6.628 5.372 12 12 12h119.998c19.879 0 35.999 16.119 35.999 35.999v12h-479.993v-12c0-19.88 16.111-35.999 36-35.999h119.998c6.628 0 12-5.372 12-12v-85.030c0-4.111-2.101-7.935-5.574-10.139-55.776-35.4-90.425-104.684-90.425-180.826-1.209-61.509 23.269-120.748 67.532-163.475-4.088 26.321-6.61 52.861-7.533 79.475 0 6.628 5.372 12 12 12s12-5.372 12-12c1.622-33.332 5.231-66.542 10.8-99.453 5.343-3.182 10.865-6.038 16.555-8.545h6.629c-5.654 35.751-8.995 71.825-9.985 107.998 0 6.628 5.372 12 12 12s12-5.372 12-12c1.102-36.178 4.529-72.256 10.27-107.998h13.73v107.998c0 6.628 5.371 12 11.999 12s12-5.372 12-12v-107.998h13.73c5.732 35.742 9.164 71.821 10.27 107.998 0 6.628 5.372 12 12 12s11.999-5.372 11.999-12c-0.998-36.173-4.331-72.247-9.984-107.998h6.61c5.699 2.507 11.246 5.362 16.598 8.545 5.559 32.911 9.159 66.121 10.776 99.453 0 6.628 5.372 12 12 12s12-5.372 12-12c-0.933-26.615-3.446-53.156-7.538-79.475 44.269 42.726 68.737 101.965 67.537 163.475 0 76.142-34.659 145.426-90.435 180.826v0.052zM574.673 409.84c5.058 5.945 10.804 11.265 17.128 15.844-7.392 2.606-14.438 6.117-20.976 10.453 1.706-8.62 2.99-17.386 3.848-26.296zM623.999 588c-39.768 0-71.998-32.235-71.998-71.999 0-39.758 32.23-71.998 71.998-71.998 39.759 0 71.999 32.239 71.999 71.998-0.042 39.75-32.254 71.962-71.999 71.999z"></path>
<path d="M623.999 468.002c-26.513 0-47.999 21.493-47.999 48s21.487 47.999 47.999 47.999c26.507 0 47.999-21.491 47.999-47.999s-21.491-48-47.999-48zM623.999 540.001c-13.255 0-23.999-10.743-23.999-23.999 0-13.252 10.743-24 23.999-24 13.252 0 24 10.748 24 24 0 13.255-10.748 23.999-24 23.999z"></path>
<path d="M356.486 363.521c-4.688-4.678-12.285-4.678-16.968 0-8.639 9.37-20.794 14.704-33.534 14.704-12.746 0-24.901-5.334-33.538-14.704-4.715-4.537-12.197-4.457-16.824 0.183-4.617 4.639-4.663 12.121-0.103 16.823 13.856 13.734 32.409 21.698 51.908 22.283 18.712-0.394 36.45-8.451 49.059-22.283 2.255-2.25 3.525-5.311 3.525-8.504 0-3.188-1.27-6.253-3.525-8.503z"></path>
<path d="M512.486 363.521c-4.688-4.678-12.285-4.678-16.968 0-8.639 9.37-20.794 14.704-33.534 14.704-12.746 0-24.901-5.334-33.538-14.704-4.715-4.537-12.197-4.457-16.824 0.183-4.617 4.639-4.663 12.121-0.103 16.823 13.856 13.734 32.409 21.698 51.908 22.283 18.713-0.394 36.45-8.451 49.059-22.283 2.255-2.25 3.525-5.311 3.525-8.504 0-3.188-1.27-6.253-3.525-8.503z"></path>
<path d="M423.518 471.52c-38.105 38.085-74.929 4.031-79.054 0-4.715-4.537-12.206-4.462-16.823 0.174-4.622 4.631-4.683 12.121-0.122 16.818 15.497 15.374 36.257 24.295 58.077 24.951 20.939-0.45 40.781-9.469 54.89-24.951 4.547-4.711 4.481-12.192-0.145-16.818-4.631-4.631-12.117-4.697-16.823-0.151v-0.023z"></path>
</svg>
